<?xml version="1.0" encoding="UTF-8"?>
<svg version="1.1" xmlns="http://www.w3.org/2000/svg" width="24" height="24">
<path d="M0 0 C3.96 0 7.92 0 12 0 C12 1.98 12 3.96 12 6 C12.66 6 13.32 6 14 6 C14 11.94 14 17.88 14 24 C8.72 24 3.44 24 -2 24 C-2 18.06 -2 12.12 -2 6 C-1.34 6 -0.68 6 0 6 C0 4.02 0 2.04 0 0 Z M0 10 C0 13.3 0 16.6 0 20 C1.32 19.67 2.64 19.34 4 19 C3.34 18.34 2.68 17.68 2 17 C2.3269756 14.38419521 2.82039068 12.35921863 4 10 C2.68 10 1.36 10 0 10 Z M8 10 C8.99 11.485 8.99 11.485 10 13 C9.67873872 15.63434254 9.18644952 17.62710097 8 20 C9.32 20 10.64 20 12 20 C12 16.7 12 13.4 12 10 C10.68 10 9.36 10 8 10 Z M5 14 C5 14.66 5 15.32 5 16 C5.66 16 6.32 16 7 16 C7 15.34 7 14.68 7 14 C6.34 14 5.68 14 5 14 Z " fill="#000000" transform="translate(6,0)"/>
</svg>
